<?xml version="1.0" encoding="utf-8"?>
<svg xmlns="http://www.w3.org/2000/svg" style="margin: auto; background: rgb(241, 242, 243); display: block; shape-rendering: auto;" width="254" height="321" preserveAspectRatio="xMidYMid">
<style type="text/css">
  text {
    text-anchor: middle; font-size: 80px; opacity: 0;
  }
</style>
<g style="transform-origin:127px 160.5px;transform:scale(1)">
<g transform="translate(127,160.5)">
  <g transform="translate(0,0)"><g class="path" style="opacity: 1; transform-origin: -31.2832px -8.75176px; animation: 1s linear -0.61875s infinite normal forwards running blink-9610dd2b-bee2-4d76-bf3d-20b316379998;"><path d="M18.56-57.84L18.56-57.84L18.56-57.84Q18.24-58.56 18.40-58.56L18.40-58.56L18.40-58.56Q18.64-58.56 18.96-58.20L18.96-58.20L18.96-58.20Q19.28-57.84 19.36-57.76L19.36-57.76L19.36-57.76Q20.16-56.56 21.12-55.16L21.12-55.16L21.12-55.16Q22.08-53.76 22.96-51.84L22.96-51.84L22.96-51.84Q23.84-49.92 24.56-47.40L24.56-47.40L24.56-47.40Q25.28-44.88 25.68-41.44L25.68-41.44L25.68-41.44Q26.16-37.52 25.88-33.72L25.88-33.72L25.88-33.72Q25.60-29.92 24.96-26.08L24.96-26.08L24.96-26.08Q24.88-25.92 24.80-25.28L24.80-25.28L24.80-25.28Q24.72-24.64 24.48-24.64L24.48-24.64L24.48-24.64Q24.32-24.64 24.16-25.24L24.16-25.24L24.16-25.24Q24-25.84 24-26.08L24-26.08L24-26.08Q23.84-26.96 23.68-28.16L23.68-28.16L23.68-28.16Q23.52-29.36 23.40-30.68L23.40-30.68L23.40-30.68Q23.28-32 23.24-33.24L23.24-33.24L23.24-33.24Q23.20-34.48 23.20-35.44L23.20-35.44L23.20-35.44Q23.20-35.76 23.16-36.84L23.16-36.84L23.16-36.84Q23.12-37.92 23.04-39.36L23.04-39.36L23.04-39.36Q22.96-40.80 22.76-42.52L22.76-42.52L22.76-42.52Q22.56-44.24 22.32-45.92L22.32-45.92L22.32-45.92Q22.48-43.44 22.32-40.96L22.32-40.96L22.32-40.96Q22.16-38.48 21.92-35.96L21.92-35.96L21.92-35.96Q21.68-33.44 21.52-30.92L21.52-30.92L21.52-30.92Q21.36-28.40 21.52-25.84L21.52-25.84L21.52-25.84Q21.76-20.88 23.52-15.76L23.52-15.76L23.52-15.76Q25.28-10.64 29.12-7.04L29.12-7.04L29.12-7.04Q29.60-6.56 29.52-6.56L29.52-6.56L29.52-6.56Q29.36-6.48 28.96-6.72L28.96-6.72L28.96-6.72Q26.16-8.32 24.32-10.56L24.32-10.56L24.32-10.56Q22.48-12.80 21.32-15.44L21.32-15.44L21.32-15.44Q20.16-18.08 19.60-20.92L19.60-20.92L19.60-20.92Q19.04-23.76 18.96-26.64L18.96-26.64L18.96-26.64Q18.96-26.88 18.92-27.08L18.92-27.08L18.92-27.08Q18.88-27.28 18.88-27.52L18.88-27.52L18.88-27.52Q17.28-22.96 15.32-18.72L15.32-18.72L15.32-18.72Q13.36-14.48 11.48-10.56L11.48-10.56L11.48-10.56Q9.60-6.64 7.96-3.16L7.96-3.16L7.96-3.16Q6.32 0.32 5.36 3.28L5.36 3.28L5.36 3.28Q5.20 3.68 5.12 3.68L5.12 3.68L5.12 3.68Q4.96 3.68 4.96 3.44L4.96 3.44L4.96 3.44Q4.96 3.20 4.96 3.12L4.96 3.12L4.96 3.12Q5.04-0.64 6.48-4.76L6.48-4.76L6.48-4.76Q7.92-8.88 9.88-13.32L9.88-13.32L9.88-13.32Q11.84-17.76 14-22.44L14-22.44L14-22.44Q16.16-27.12 17.76-32L17.76-32L17.76-32Q18.72-35.12 19.40-38.48L19.40-38.48L19.40-38.48Q20.08-41.84 20.24-45.20L20.24-45.20L20.24-45.20Q20.40-48.56 20-51.80L20-51.80L20-51.80Q19.60-55.04 18.56-57.84" fill="#090333" stroke="none" stroke-width="none" transform="translate(-48.52887582778931,18.68824484616518)" style="fill: rgb(9, 3, 51);"></path></g><g class="path" style="opacity: 1; transform-origin: -10.2317px -10.7264px; animation: 1s linear -0.5775s infinite normal forwards running blink-9610dd2b-bee2-4d76-bf3d-20b316379998;"><path d="M28.48-11.76L28.48-11.76L28.48-11.76Q29.36-9.92 30.80-8.32L30.80-8.32L30.80-8.32Q31.36-11.68 32.96-15L32.96-15L32.96-15Q34.56-18.32 36.60-21.68L36.60-21.68L36.60-21.68Q38.64-25.04 40.88-28.40L40.88-28.40L40.88-28.40Q43.12-31.76 45.04-35.20L45.04-35.20L45.04-35.20Q46.48-37.68 47.48-40.56L47.48-40.56L47.48-40.56Q48.48-43.44 48.92-46.44L48.92-46.44L48.92-46.44Q49.36-49.44 49.16-52.40L49.16-52.40L49.16-52.40Q48.96-55.36 47.92-58L47.92-58L47.92-58Q47.68-58.40 47.84-58.56L47.84-58.56L47.84-58.56Q48-58.72 48.36-58.36L48.36-58.36L48.36-58.36Q48.72-58 48.80-57.84L48.80-57.84L48.80-57.84Q49.76-56.48 50.36-54.28L50.36-54.28L50.36-54.28Q50.96-52.08 51.24-49.40L51.24-49.40L51.24-49.40Q51.52-46.72 51.52-43.76L51.52-43.76L51.52-43.76Q51.52-40.80 51.28-37.84L51.28-37.84L51.28-37.84Q50.96-33.92 50.12-29.28L50.12-29.28L50.12-29.28Q49.28-24.64 48.08-20.80L48.08-20.80L48.08-20.80Q48-20.64 47.80-20.08L47.80-20.08L47.80-20.08Q47.60-19.52 47.36-19.52L47.36-19.52L47.36-19.52Q47.20-19.60 47.12-20.20L47.12-20.20L47.12-20.20Q47.04-20.80 47.04-20.96L47.04-20.96L47.04-20.96Q47.04-21.84 47.08-23.08L47.08-23.08L47.08-23.08Q47.12-24.32 47.20-25.64L47.20-25.64L47.20-25.64Q47.28-26.96 47.40-28.20L47.40-28.20L47.40-28.20Q47.52-29.44 47.68-30.32L47.68-30.32L47.68-30.32Q47.76-30.80 47.96-32.52L47.96-32.52L47.96-32.52Q48.16-34.24 48.32-36.40L48.32-36.40L48.32-36.40Q47.36-34.16 46.80-32.40L46.80-32.40L46.80-32.40Q46.24-30.64 45.84-28.96L45.84-28.96L45.84-28.96Q45.44-27.28 45.16-25.44L45.16-25.44L45.16-25.44Q44.88-23.60 44.64-21.12L44.64-21.12L44.64-21.12Q44.40-18.64 44.44-15.92L44.44-15.92L44.44-15.92Q44.48-13.20 45-10.56L45-10.56L45-10.56Q45.52-7.92 46.52-5.40L46.52-5.40L46.52-5.40Q47.52-2.88 49.12-0.80L49.12-0.80L49.12-0.80Q49.44-0.32 49.28-0.24L49.28-0.24L49.28-0.24Q49.12-0.16 48.88-0.40L48.88-0.40L48.88-0.40Q46.32-2.48 44.84-5.08L44.84-5.08L44.84-5.08Q43.36-7.68 42.64-10.56L42.64-10.56L42.64-10.56Q41.92-13.44 41.88-16.44L41.88-16.44L41.88-16.44Q41.84-19.44 42.16-22.32L42.16-22.32L42.16-22.32Q42.32-23.36 42.44-24.40L42.44-24.40L42.44-24.40Q42.56-25.44 42.72-26.56L42.72-26.56L42.72-26.56Q40.88-23.60 39.04-20.80L39.04-20.80L39.04-20.80Q37.20-18 35.60-15.24L35.60-15.24L35.60-15.24Q34-12.48 32.76-9.80L32.76-9.80L32.76-9.80Q31.52-7.12 30.88-4.48L30.88-4.48L30.88-4.48Q30.72-4.08 30.72-4.08L30.72-4.08L30.72-4.08Q30.56-4.08 30.56-4.40L30.56-4.40L30.56-4.40Q30.56-4.72 30.56-4.80L30.56-4.80L30.56-4.80Q30.56-5.44 30.56-6.08L30.56-6.08L30.56-6.08Q30.56-6.72 30.72-7.36L30.72-7.36L30.72-7.36Q30.08-7.68 29.60-7.96L29.60-7.96L29.60-7.96Q29.12-8.24 28.68-8.64L28.68-8.64L28.68-8.64Q28.24-9.04 27.80-9.60L27.80-9.60L27.80-9.60Q27.36-10.16 26.88-11.04L26.88-11.04L26.88-11.04Q26.48-11.84 26.08-12.96L26.08-12.96L26.08-12.96Q25.68-14.08 25.40-15.16L25.40-15.16L25.40-15.16Q25.12-16.24 25.08-17L25.08-17L25.08-17Q25.04-17.76 25.28-17.76L25.28-17.76L25.28-17.76Q25.44-17.76 25.64-17.48L25.64-17.48L25.64-17.48Q25.84-17.20 26.08-16.80L26.08-16.80L26.08-16.80Q26.32-16.40 26.48-16L26.48-16L26.48-16Q26.64-15.60 26.72-15.44L26.72-15.44L26.72-15.44Q27.12-14.48 27.56-13.56L27.56-13.56L27.56-13.56Q28-12.64 28.48-11.76" fill="#090333" stroke="none" stroke-width="none" transform="translate(-48.52887582778931,18.68824484616518)" style="fill: rgb(9, 3, 51);"></path></g><g class="path" style="opacity: 1; transform-origin: -12.8955px -12.6584px; animation: 1s linear -0.53625s infinite normal forwards running blink-9610dd2b-bee2-4d76-bf3d-20b316379998;"><path d="M30.16-27.36L30.16-26.56L30.16-26.56Q31.92-30 33.80-33.24L33.80-33.24L33.80-33.24Q35.68-36.48 36.80-38.40L36.80-38.40L36.80-38.40Q38.72-41.84 40.80-45.16L40.80-45.16L40.80-45.16Q42.88-48.48 44.40-51.04L44.40-51.04L44.40-51.04Q44.56-51.44 44.76-51.76L44.76-51.76L44.76-51.76Q44.96-52.08 45.12-51.92L45.12-51.92L45.12-51.92Q45.28-51.92 45.20-51.52L45.20-51.52L45.20-51.52Q45.12-51.12 45.04-50.72L45.04-50.72L45.04-50.72Q43.92-44.96 41-39.84L41-39.84L41-39.84Q38.08-34.72 34.88-29.52L34.88-29.52L34.88-29.52Q33.76-27.76 32.92-26.60L32.92-26.60L32.92-26.60Q32.08-25.44 31.48-24.36L31.48-24.36L31.48-24.36Q30.88-23.28 30.48-22L30.48-22L30.48-22Q30.08-20.72 29.92-18.72L29.92-18.72L29.92-18.72Q30.24-19.60 30.64-20.40L30.64-20.40L30.64-20.40Q31.04-21.20 31.44-21.92L31.44-21.92L31.44-21.92Q33.68-25.76 36.48-29.60L36.48-29.60L36.48-29.60Q39.28-33.44 42-36.80L42-36.80L42-36.80Q42.16-36.96 42.60-37.48L42.60-37.48L42.60-37.48Q43.04-38 43.20-37.92L43.20-37.92L43.20-37.92Q43.36-37.84 43.16-37.20L43.16-37.20L43.16-37.20Q42.96-36.56 42.88-36.24L42.88-36.24L42.88-36.24Q42.48-35.36 41.88-34.08L41.88-34.08L41.88-34.08Q41.28-32.80 40.60-31.48L40.60-31.48L40.60-31.48Q39.92-30.16 39.20-28.92L39.20-28.92L39.20-28.92Q38.48-27.68 37.92-26.88L37.92-26.88L37.92-26.88Q37.60-26.40 36.56-24.96L36.56-24.96L36.56-24.96Q35.52-23.52 34.32-21.36L34.32-21.36L34.32-21.36Q33.12-19.20 31.96-16.48L31.96-16.48L31.96-16.48Q30.80-13.76 30.24-10.72L30.24-10.72L30.24-10.72Q30-11.20 29.64-11.92L29.64-11.92L29.64-11.92Q29.28-12.64 28.80-14.24L28.80-14.24L28.80-14.24Q27.36-19.28 27.24-24.44L27.24-24.44L27.24-24.44Q27.12-29.60 27.20-35.04L27.20-35.04L27.20-35.04Q27.28-38.48 27.24-41.92L27.24-41.92L27.24-41.92Q27.20-45.36 26.08-49.20L26.08-49.20L26.08-49.20Q26-49.52 26.08-49.68L26.08-49.68L26.08-49.68Q26.24-49.68 26.56-49.20L26.56-49.20L26.56-49.20Q28-47.68 28.72-44.76L28.72-44.76L28.72-44.76Q29.44-41.84 29.76-38.60L29.76-38.60L29.76-38.60Q30.08-35.36 30.12-32.28L30.12-32.28L30.12-32.28Q30.16-29.20 30.16-27.36L30.16-27.36" fill="#090333" stroke="none" stroke-width="none" transform="translate(-48.52887582778931,18.68824484616518)" style="fill: rgb(9, 3, 51);"></path></g><g class="path" style="opacity: 1; transform-origin: -39.8474px -9.63842px; animation: 1s linear -0.495s infinite normal forwards running blink-9610dd2b-bee2-4d76-bf3d-20b316379998;"><path d="M9.12-33.52L9.12-33.52L9.12-33.52Q10.48-37.68 12.20-41.92L12.20-41.92L12.20-41.92Q13.92-46.16 15.20-49.52L15.20-49.52L15.20-49.52Q15.36-49.92 15.56-50.32L15.56-50.32L15.56-50.32Q15.76-50.72 15.92-50.64L15.92-50.64L15.92-50.64Q16.08-50.64 16.04-50.12L16.04-50.12L16.04-50.12Q16-49.60 16-49.20L16-49.20L16-49.20Q15.28-42.64 13.12-36.16L13.12-36.16L13.12-36.16Q10.96-29.68 8.32-23.36L8.32-23.36L8.32-23.36Q6.72-19.36 4.88-15.32L4.88-15.32L4.88-15.32Q3.04-11.28 1.84-6.56L1.84-6.56L1.84-6.56Q1.68-6.16 1.72-6.08L1.72-6.08L1.72-6.08Q1.76-6 1.68-6L1.68-6L1.68-6Q1.44-6.16 1.44-6.72L1.44-6.72L1.44-6.72Q1.04-9.12 1.92-12.76L1.92-12.76L1.92-12.76Q2.80-16.40 4.16-20.28L4.16-20.28L4.16-20.28Q5.52-24.16 6.96-27.72L6.96-27.72L6.96-27.72Q8.40-31.28 9.12-33.52" fill="#090333" stroke="none" stroke-width="none" transform="translate(-48.52887582778931,18.68824484616518)" style="fill: rgb(9, 3, 51);"></path></g><g class="path" style="opacity: 1; transform-origin: -39.2174px 1.9238px; animation: 1s linear -0.45375s infinite normal forwards running blink-9610dd2b-bee2-4d76-bf3d-20b316379998;"><path d="M5.68-14.48L5.68-14.48L5.68-14.48Q7.68-19.04 10-23.88L10-23.88L10-23.88Q12.32-28.72 14.48-33.12L14.48-33.12L14.48-33.12Q14.56-33.36 14.92-34L14.92-34L14.92-34Q15.28-34.64 15.60-34.56L15.60-34.56L15.60-34.56Q15.76-34.56 15.68-33.84L15.68-33.84L15.68-33.84Q15.60-33.12 15.44-32.80L15.44-32.80L15.44-32.80Q15.20-31.68 14.80-30.12L14.80-30.12L14.80-30.12Q14.40-28.56 13.88-26.92L13.88-26.92L13.88-26.92Q13.36-25.28 12.80-23.72L12.80-23.72L12.80-23.72Q12.24-22.16 11.76-21.12L11.76-21.12L11.76-21.12Q11.52-20.64 10.92-19.08L10.92-19.08L10.92-19.08Q10.32-17.52 9.48-15.36L9.48-15.36L9.48-15.36Q8.64-13.20 7.72-10.76L7.72-10.76L7.72-10.76Q6.80-8.32 6-6.12L6-6.12L6-6.12Q5.20-3.92 4.60-2.20L4.60-2.20L4.60-2.20Q4-0.48 3.92 0.24L3.92 0.24L3.92 0.24Q3.76 1.04 3.60 1.04L3.60 1.04L3.60 1.04Q3.44 1.04 3.40 0.72L3.40 0.72L3.40 0.72Q3.36 0.40 3.28 0.24L3.28 0.24L3.28 0.24Q2.88-0.72 2.92-2.56L2.92-2.56L2.92-2.56Q2.96-4.40 3.36-6.48L3.36-6.48L3.36-6.48Q3.76-8.56 4.36-10.72L4.36-10.72L4.36-10.72Q4.96-12.88 5.68-14.48" fill="#090333" stroke="none" stroke-width="none" transform="translate(-48.52887582778931,18.68824484616518)" style="fill: rgb(9, 3, 51);"></path></g><g class="path" style="opacity: 1; transform-origin: 3.67436px -7.0289px; animation: 1s linear -0.4125s infinite normal forwards running blink-9610dd2b-bee2-4d76-bf3d-20b316379998;"><path d="M53.36-21.36L53.36-21.36L53.36-21.36Q52.96-17.76 52.12-14.16L52.12-14.16L52.12-14.16Q51.28-10.56 50.64-7.76L50.64-7.76L50.64-7.76Q50.32-6.72 50.16-6.80L50.16-6.80L50.16-6.80Q50-6.80 49.96-7.16L49.96-7.16L49.96-7.16Q49.92-7.52 49.84-7.92L49.84-7.92L49.84-7.92Q49.20-13.28 50-18.64L50-18.64L50-18.64Q50.80-24 51.76-29.60L51.76-29.60L51.76-29.60Q52.40-32.96 52.80-36.52L52.80-36.52L52.80-36.52Q53.20-40.08 52.80-44.16L52.80-44.16L52.80-44.16Q52.80-44.48 52.96-44.64L52.96-44.64L52.96-44.64Q53.12-44.64 53.16-44.44L53.16-44.44L53.16-44.44Q53.20-44.24 53.36-44.16L53.36-44.16L53.36-44.16Q54.56-42.40 54.76-39.32L54.76-39.32L54.76-39.32Q54.96-36.24 54.72-32.88L54.72-32.88L54.72-32.88Q54.48-29.52 54.04-26.40L54.04-26.40L54.04-26.40Q53.60-23.28 53.36-21.36" fill="#090333" stroke="none" stroke-width="none" transform="translate(-48.52887582778931,18.68824484616518)" style="fill: rgb(9, 3, 51);"></path></g><g class="path" style="opacity: 1; transform-origin: -31.0689px -32.2687px; animation: 1s linear -0.37125s infinite normal forwards running blink-9610dd2b-bee2-4d76-bf3d-20b316379998;"><path d="M17.12-51.92L17.12-51.92L17.12-51.92Q16.96-53.60 16.68-55.04L16.68-55.04L16.68-55.04Q16.40-56.48 16-58L16-58L16-58Q15.92-58.16 15.92-58.40L15.92-58.40L15.92-58.40Q15.92-58.64 16-58.64L16-58.64L16-58.64Q16.24-58.64 16.48-58.40L16.48-58.40L16.80-58.08L16.80-58.08Q17.68-56.88 18.24-55.72L18.24-55.72L18.24-55.72Q18.80-54.56 18.96-51.92L18.96-51.92L18.96-51.92Q19.04-50.88 18.96-49.36L18.96-49.36L18.96-49.36Q18.88-47.84 18.68-46.48L18.68-46.48L18.68-46.48Q18.48-45.12 18.20-44.16L18.20-44.16L18.20-44.16Q17.92-43.20 17.68-43.28L17.68-43.28L17.68-43.28Q17.52-43.28 17.44-43.72L17.44-43.72L17.44-43.72Q17.36-44.16 17.32-44.72L17.32-44.72L17.32-44.72Q17.28-45.28 17.28-45.88L17.28-45.88L17.28-45.88Q17.28-46.48 17.28-46.72L17.28-46.72L17.28-46.72Q17.28-48.08 17.28-49.32L17.28-49.32L17.28-49.32Q17.28-50.56 17.12-51.92" fill="#090333" stroke="none" stroke-width="none" transform="translate(-48.52887582778931,18.68824484616518)" style="fill: rgb(9, 3, 51);"></path></g><g class="path" style="opacity: 1; transform-origin: -1.71288px -33.309px; animation: 1s linear -0.33s infinite normal forwards running blink-9610dd2b-bee2-4d76-bf3d-20b316379998;"><path d="M46.40-52.96L46.40-52.96L46.40-52.96Q46.32-54.40 46.12-55.68L46.12-55.68L46.12-55.68Q45.92-56.96 45.52-58.32L45.52-58.32L45.52-58.32Q45.44-58.48 45.40-58.72L45.40-58.72L45.40-58.72Q45.36-58.96 45.52-58.88L45.52-58.88L45.52-58.88Q45.68-58.72 45.80-58.64L45.80-58.64L45.80-58.64Q45.92-58.56 46.08-58.48L46.08-58.48L46.24-58.32L46.24-58.32Q47.12-57.20 47.64-56.16L47.64-56.16L47.64-56.16Q48.16-55.12 48.24-52.72L48.24-52.72L48.24-52.72Q48.24-51.84 48.04-50.48L48.04-50.48L48.04-50.48Q47.84-49.12 47.56-47.88L47.56-47.88L47.56-47.88Q47.28-46.64 46.92-45.80L46.92-45.80L46.92-45.80Q46.56-44.96 46.24-45.12L46.24-45.12L46.24-45.12Q46.08-45.20 46.08-45.64L46.08-45.64L46.08-45.64Q46.08-46.08 46.08-46.60L46.08-46.60L46.08-46.60Q46.08-47.12 46.16-47.60L46.16-47.60L46.16-47.60Q46.24-48.08 46.24-48.32L46.24-48.32L46.24-48.32Q46.40-49.60 46.44-50.72L46.44-50.72L46.44-50.72Q46.48-51.84 46.40-52.96" fill="#090333" stroke="none" stroke-width="none" transform="translate(-48.52887582778931,18.68824484616518)" style="fill: rgb(9, 3, 51);"></path></g><g class="path" style="opacity: 1; transform-origin: 0.624454px 12.2882px; animation: 1s linear -0.28875s infinite normal forwards running blink-9610dd2b-bee2-4d76-bf3d-20b316379998;"><path d="M49.20-5.60L49.20-5.60L49.20-5.60Q49.68-4.24 50.28-3.12L50.28-3.12L50.28-3.12Q50.88-2 51.52-0.88L51.52-0.88L51.52-0.88Q51.60-0.80 51.68-0.60L51.68-0.60L51.68-0.60Q51.76-0.40 51.60-0.40L51.60-0.40L51.60-0.40Q51.36-0.40 51.24-0.48L51.24-0.48L51.24-0.48Q51.12-0.56 50.96-0.64L50.96-0.64L50.96-0.64Q50.80-0.72 50.72-0.80L50.72-0.80L50.72-0.80Q49.60-1.68 48.88-2.48L48.88-2.48L48.88-2.48Q48.16-3.28 47.44-5.36L47.44-5.36L47.44-5.36Q47.20-6.16 46.96-7.36L46.96-7.36L46.96-7.36Q46.72-8.56 46.64-9.68L46.64-9.68L46.64-9.68Q46.56-10.80 46.64-11.60L46.64-11.60L46.64-11.60Q46.72-12.40 47.04-12.40L47.04-12.40L47.04-12.40Q47.12-12.40 47.28-12.04L47.28-12.04L47.28-12.04Q47.44-11.68 47.56-11.24L47.56-11.24L47.56-11.24Q47.68-10.80 47.80-10.36L47.80-10.36L47.80-10.36Q47.92-9.92 48-9.76L48-9.76L48-9.76Q48.40-8.64 48.64-7.60L48.64-7.60L48.64-7.60Q48.88-6.56 49.20-5.60" fill="#090333" stroke="none" stroke-width="none" transform="translate(-48.52887582778931,18.68824484616518)" style="fill: rgb(9, 3, 51);"></path></g><g class="path" style="opacity: 1; transform-origin: 25.0845px -6.61415px; animation: 1s linear -0.2475s infinite normal forwards running blink-9610dd2b-bee2-4d76-bf3d-20b316379998;"><path d="M76.56-15.44L76.56-15.44L76.56-15.44Q79.12-13.12 81.36-10.52L81.36-10.52L81.36-10.52Q83.60-7.92 85.68-5.12L85.68-5.12L85.68-5.12Q85.76-4.96 86.12-4.52L86.12-4.52L86.12-4.52Q86.48-4.08 86.32-3.92L86.32-3.92L86.32-3.92Q86.24-3.84 85.72-4.04L85.72-4.04L85.72-4.04Q85.20-4.24 85.04-4.40L85.04-4.40L85.04-4.40Q84.40-4.80 83.56-5.44L83.56-5.44L83.56-5.44Q82.72-6.08 81.80-6.80L81.80-6.80L81.80-6.80Q80.88-7.52 80-8.28L80-8.28L80-8.28Q79.12-9.04 78.56-9.68L78.56-9.68L78.56-9.68Q78.16-10 76.64-11.32L76.64-11.32L76.64-11.32Q75.12-12.64 73.20-14.16L73.20-14.16L73.20-14.16Q71.28-15.68 69.28-16.96L69.28-16.96L69.28-16.96Q67.28-18.24 66-18.56L66-18.56L66-18.56Q65.76-18.64 65.32-18.80L65.32-18.80L65.32-18.80Q64.88-18.96 64.96-19.36L64.96-19.36L64.96-19.36Q65.60-22.40 66.56-25.28L66.56-25.28L66.56-25.28Q67.52-28.16 68.40-31.20L68.40-31.20L68.40-31.20Q69.52-34.96 70.52-38.88L70.52-38.88L70.52-38.88Q71.52-42.80 71.68-47.36L71.68-47.36L71.68-47.36Q71.68-47.76 71.76-47.76L71.76-47.76L71.76-47.76Q72-47.76 72.16-47.20L72.16-47.20L72.16-47.20Q73.12-45.04 72.96-41.60L72.96-41.60L72.96-41.60Q72.80-38.16 72.12-34.44L72.12-34.44L72.12-34.44Q71.44-30.72 70.44-27.32L70.44-27.32L70.44-27.32Q69.44-23.92 68.72-21.92L68.72-21.92L68.48-21.28L68.48-21.28Q71.44-23.28 74.64-25.28L74.64-25.28L74.64-25.28Q77.84-27.28 80.60-29.32L80.60-29.32L80.60-29.32Q83.36-31.36 85.40-33.56L85.40-33.56L85.40-33.56Q87.44-35.76 88.16-38.16L88.16-38.16L88.16-38.16Q88.64-39.76 88.04-41.36L88.04-41.36L88.04-41.36Q87.44-42.96 85.96-44.36L85.96-44.36L85.96-44.36Q84.48-45.76 82.24-46.80L82.24-46.80L82.24-46.80Q80-47.84 77.28-48.24L77.28-48.24L77.28-48.24Q73.68-48.72 70-48.48L70-48.48L70-48.48Q70.32-46.08 70.12-43.64L70.12-43.64L70.12-43.64Q69.92-41.20 69.52-39.44L69.52-39.44L69.52-39.44Q68.48-35.12 66.88-30.52L66.88-30.52L66.88-30.52Q65.28-25.92 63.60-21.92L63.60-21.92L63.60-21.92Q63.44-21.68 63.12-21.12L63.12-21.12L63.12-21.12Q62.80-20.56 62.56-20.64L62.56-20.64L62.56-20.64Q62.40-20.72 62.48-21.36L62.48-21.36L62.48-21.36Q62.56-22 62.56-22.24L62.56-22.24L62.56-22.24Q62.64-23.20 62.92-24.60L62.92-24.60L62.92-24.60Q63.20-26 63.48-27.52L63.48-27.52L63.48-27.52Q63.76-29.04 64.12-30.44L64.12-30.44L64.12-30.44Q64.48-31.84 64.80-32.88L64.80-32.88L64.80-32.88Q64.96-33.36 65.32-34.92L65.32-34.92L65.32-34.92Q65.68-36.48 66.08-38.64L66.08-38.64L66.08-38.64Q66.48-40.80 66.88-43.28L66.88-43.28L66.88-43.28Q67.28-45.76 67.52-48.08L67.52-48.08L66.40-47.92L66.40-47.92Q66.16-44.88 65.44-41.76L65.44-41.76L65.44-41.76Q64.72-38.64 63.80-35.48L63.80-35.48L63.80-35.48Q62.88-32.32 61.88-29.08L61.88-29.08L61.88-29.08Q60.88-25.84 60.16-22.72L60.16-22.72L60.16-22.72Q59.52-19.92 59.16-16.88L59.16-16.88L59.16-16.88Q58.80-13.84 58.92-10.88L58.92-10.88L58.92-10.88Q59.04-7.92 59.64-5.16L59.64-5.16L59.64-5.16Q60.24-2.40 61.60-0.16L61.60-0.16L61.60-0.16Q61.76 0.24 61.60 0.24L61.60 0.24L61.60 0.24Q61.44 0.24 61.20 0L61.20 0L61.20 0Q59.20-2.32 58.16-5.20L58.16-5.20L58.16-5.20Q57.12-8.08 56.84-11.24L56.84-11.24L56.84-11.24Q56.56-14.40 56.92-17.76L56.92-17.76L56.92-17.76Q57.28-21.12 58-24.32L58-24.32L58-24.32Q59.36-30.32 61.28-36.16L61.28-36.16L61.28-36.16Q63.20-42 64.48-47.44L64.48-47.44L64.48-47.44Q62.48-46.96 60.56-46.28L60.56-46.28L60.56-46.28Q58.64-45.60 56.96-44.80L56.96-44.80L56.96-44.80Q56.56-44.64 56.48-44.72L56.48-44.72L56.48-44.72Q56.40-44.80 56.56-45L56.56-45L56.56-45Q56.72-45.20 56.88-45.28L56.88-45.28L56.88-45.28Q60.88-48.56 66.64-49.92L66.64-49.92L66.64-49.92Q72.40-51.28 78.40-50.64L78.40-50.64L78.40-50.64Q81.52-50.24 84.12-48.88L84.12-48.88L84.12-48.88Q86.72-47.52 88.40-45.56L88.40-45.56L88.40-45.56Q90.08-43.60 90.60-41.20L90.60-41.20L90.60-41.20Q91.12-38.80 90.08-36.40L90.08-36.40L90.08-36.40Q88.88-33.60 86.28-31.20L86.28-31.20L86.28-31.20Q83.68-28.80 80.44-26.72L80.44-26.72L80.44-26.72Q77.20-24.64 73.60-22.88L73.60-22.88L73.60-22.88Q70-21.12 66.88-19.60L66.88-19.60L66.88-19.60Q68.16-19.60 69.52-19.20L69.52-19.20L69.52-19.20Q70.88-18.80 72.20-18.20L72.20-18.20L72.20-18.20Q73.52-17.60 74.68-16.88L74.68-16.88L74.68-16.88Q75.84-16.16 76.56-15.44" fill="#090333" stroke="none" stroke-width="none" transform="translate(-48.52887582778931,18.68824484616518)" style="fill: rgb(9, 3, 51);"></path></g><g class="path" style="opacity: 1; transform-origin: 33.8125px -19.9431px; animation: 1s linear -0.20625s infinite normal forwards running blink-9610dd2b-bee2-4d76-bf3d-20b316379998;"><path d="M98.72-35.44L98.72-35.44L98.72-35.44Q97.52-31.28 95.08-28.36L95.08-28.36L95.08-28.36Q92.64-25.44 89.68-23.52L89.68-23.52L89.68-23.52Q86.72-21.60 83.68-20.60L83.68-20.60L83.68-20.60Q80.64-19.60 78.40-19.28L78.40-19.28L78.40-19.28Q77.76-19.12 77.24-19.16L77.24-19.16L77.24-19.16Q76.72-19.20 76.80-19.36L76.80-19.36L76.80-19.36Q76.64-19.52 77.16-19.68L77.16-19.68L77.16-19.68Q77.68-19.84 78.24-20.08L78.24-20.08L78.24-20.08Q82.56-21.68 86.56-24.24L86.56-24.24L86.56-24.24Q90.56-26.80 93.60-31.04L93.60-31.04L93.60-31.04Q95.04-33.04 95.76-35.68L95.76-35.68L95.76-35.68Q96.48-38.32 96.28-41.04L96.28-41.04L96.28-41.04Q96.08-43.76 94.92-46.32L94.92-46.32L94.92-46.32Q93.76-48.88 91.52-50.72L91.52-50.72L91.52-50.72Q88.88-52.96 85.76-54.24L85.76-54.24L85.76-54.24Q82.64-55.52 79.36-56L79.36-56L79.36-56Q76.08-56.48 72.72-56.20L72.72-56.20L72.72-56.20Q69.36-55.92 66.24-55.12L66.24-55.12L66.24-55.12Q65.68-54.96 65.60-54.92L65.60-54.92L65.60-54.92Q65.52-54.88 65.44-55.04L65.44-55.04L65.44-55.04Q65.44-55.12 66.08-55.60L66.08-55.60L66.08-55.60Q67.36-56.40 69.48-57.08L69.48-57.08L69.48-57.08Q71.60-57.76 74.28-58L74.28-58L74.28-58Q76.96-58.24 80.08-57.96L80.08-57.96L80.08-57.96Q83.20-57.68 86.48-56.48L86.48-56.48L86.48-56.48Q89.84-55.36 92.80-53L92.80-53L92.80-53Q95.76-50.64 97.52-47.20L97.52-47.20L97.52-47.20Q99.20-43.84 99.24-40.68L99.24-40.68L99.24-40.68Q99.28-37.52 98.72-35.44" fill="#090333" stroke="none" stroke-width="none" transform="translate(-48.52887582778931,18.68824484616518)" style="fill: rgb(9, 3, 51);"></path></g><g class="path" style="opacity: 1; transform-origin: 27.4972px -25.6618px; animation: 1s linear -0.165s infinite normal forwards running blink-9610dd2b-bee2-4d76-bf3d-20b316379998;"><path d="M58.08-48.48L58.08-48.48L58.08-48.48Q59.68-50.80 62.32-52.28L62.32-52.28L62.32-52.28Q64.96-53.76 68.08-54.48L68.08-54.48L68.08-54.48Q71.20-55.20 74.60-55.12L74.60-55.12L74.60-55.12Q78-55.04 81.20-54.32L81.20-54.32L81.20-54.32Q84.40-53.60 87.16-52.16L87.16-52.16L87.16-52.16Q89.92-50.72 91.76-48.64L91.76-48.64L91.76-48.64Q93.04-47.12 93.72-45.40L93.72-45.40L93.72-45.40Q94.40-43.68 94.44-41.88L94.44-41.88L94.44-41.88Q94.48-40.08 94.04-38.40L94.04-38.40L94.04-38.40Q93.60-36.72 92.80-35.28L92.80-35.28L92.80-35.28Q92.64-34.96 92-34.20L92-34.20L92-34.20Q91.36-33.44 91.20-33.60L91.20-33.60L91.20-33.60Q91.04-33.68 91.44-34.48L91.44-34.48L91.44-34.48Q91.84-35.28 92-35.68L92-35.68L92-35.68Q92.64-37.76 92.52-39.80L92.52-39.80L92.52-39.80Q92.40-41.84 91.72-43.60L91.72-43.60L91.72-43.60Q91.04-45.36 89.92-46.76L89.92-46.76L89.92-46.76Q88.80-48.16 87.52-49.04L87.52-49.04L87.52-49.04Q84.48-51.04 80.64-51.88L80.64-51.88L80.64-51.88Q76.80-52.72 72.84-52.52L72.84-52.52L72.84-52.52Q68.88-52.32 65.12-51.16L65.12-51.16L65.12-51.16Q61.36-50 58.64-48.08L58.64-48.08L58.64-48.08Q57.92-47.44 57.68-47.68L57.68-47.68L57.68-47.68Q57.52-47.76 57.72-48.04L57.72-48.04L57.72-48.04Q57.92-48.32 58.08-48.48" fill="#090333" stroke="none" stroke-width="none" transform="translate(-48.52887582778931,18.68824484616518)" style="fill: rgb(9, 3, 51);"></path></g><g class="path" style="opacity: 1; transform-origin: 33.0711px 11.373px; animation: 1s linear -0.12375s infinite normal forwards running blink-9610dd2b-bee2-4d76-bf3d-20b316379998;"><path d="M100.72 1.92L100.72 1.92L100.72 1.92Q101.20 1.84 101.20 2L101.20 2L101.20 2Q101.20 2.16 100.80 2.32L100.80 2.32L100.80 2.32Q97.92 3.36 95.20 3.44L95.20 3.44L95.20 3.44Q92.48 3.52 90 2.92L90 2.92L90 2.92Q87.52 2.32 85.36 1.24L85.36 1.24L85.36 1.24Q83.20 0.16 81.44-1.12L81.44-1.12L81.44-1.12Q79.36-2.64 77.48-4.52L77.48-4.52L77.48-4.52Q75.60-6.40 73.84-8.28L73.84-8.28L73.84-8.28Q72.08-10.16 70.32-11.92L70.32-11.92L70.32-11.92Q68.56-13.68 66.72-15.04L66.72-15.04L66.72-15.04Q65.36-10.56 64.24-7.12L64.24-7.12L64.24-7.12Q64.08-6.72 63.92-6.40L63.92-6.40L63.92-6.40Q63.76-6.08 63.60-6.16L63.60-6.16L63.60-6.16Q63.44-6.24 63.44-6.60L63.44-6.60L63.44-6.60Q63.44-6.96 63.44-7.36L63.44-7.36L63.44-7.36Q63.60-9.60 63.76-11.92L63.76-11.92L63.76-11.92Q63.92-14.24 64.48-16.56L64.48-16.56L64.48-16.56Q63.92-16.88 63.40-17.12L63.40-17.12L63.40-17.12Q62.88-17.36 62.24-17.68L62.24-17.68L62.24-17.68Q62-17.92 62-18L62-18L62-18Q62-18.08 62.20-18.08L62.20-18.08L62.20-18.08Q62.40-18.08 62.56-18.08L62.56-18.08L62.56-18.08Q65.76-17.84 68.40-16.12L68.40-16.12L68.40-16.12Q71.04-14.40 73.52-12.08L73.52-12.08L73.52-12.08Q76-9.76 78.40-7.16L78.40-7.16L78.40-7.16Q80.80-4.56 83.52-2.56L83.52-2.56L83.52-2.56Q85.04-1.44 87-0.52L87-0.52L87-0.52Q88.96 0.40 91.20 1.04L91.20 1.04L91.20 1.04Q93.44 1.68 95.88 1.96L95.88 1.96L95.88 1.96Q98.32 2.24 100.72 1.92" fill="#090333" stroke="none" stroke-width="none" transform="translate(-48.52887582778931,18.68824484616518)" style="fill: rgb(9, 3, 51);"></path></g><g class="path" style="opacity: 1; transform-origin: 35.1161px 5.65543px; animation: 1s linear -0.0825s infinite normal forwards running blink-9610dd2b-bee2-4d76-bf3d-20b316379998;"><path d="M88.32-9.76L88.32-9.76L88.32-9.76Q90.56-7.76 92.60-5.28L92.60-5.28L92.60-5.28Q94.64-2.80 96.56-1.28L96.56-1.28L96.56-1.28Q97.12-0.72 97.04-0.48L97.04-0.48L97.04-0.48Q96.88-0.32 96.64-0.40L96.64-0.40L96.64-0.40Q96.40-0.48 96.08-0.56L96.08-0.56L96.08-0.56Q93.92-1.28 92.04-2.56L92.04-2.56L92.04-2.56Q90.16-3.84 88.40-5.44L88.40-5.44L88.40-5.44Q86.64-7.04 85-8.80L85-8.80L85-8.80Q83.36-10.56 81.68-12.24L81.68-12.24L81.68-12.24Q80.56-13.36 79.24-14.72L79.24-14.72L79.24-14.72Q77.92-16.08 76.48-17.24L76.48-17.24L76.48-17.24Q75.04-18.40 73.48-19.16L73.48-19.16L73.48-19.16Q71.92-19.92 70.24-19.92L70.24-19.92L73.36-21.28L73.36-21.28Q74.56-21.84 76.32-22.64L76.32-22.64L76.32-22.64Q78.08-23.44 79.68-24.16L79.68-24.16L79.68-24.16Q81.28-24.88 82.48-25.32L82.48-25.32L82.48-25.32Q83.68-25.76 83.76-25.68L83.76-25.68L83.76-25.68Q83.84-25.52 83.48-25.12L83.48-25.12L83.48-25.12Q83.12-24.72 82.52-24.24L82.52-24.24L82.52-24.24Q81.92-23.76 81.36-23.36L81.36-23.36L81.36-23.36Q80.80-22.96 80.56-22.88L80.56-22.88L80.56-22.88Q79.04-22 77.72-21.24L77.72-21.24L77.72-21.24Q76.40-20.48 75.04-19.84L75.04-19.84L75.04-19.84Q76.88-19.12 78.80-17.80L78.80-17.80L78.80-17.80Q80.72-16.48 82.48-14.96L82.48-14.96L82.48-14.96Q84.24-13.44 85.76-12.04L85.76-12.04L85.76-12.04Q87.28-10.64 88.32-9.76" fill="#090333" stroke="none" stroke-width="none" transform="translate(-48.52887582778931,18.68824484616518)" style="fill: rgb(9, 3, 51);"></path></g><g class="path" style="opacity: 1; transform-origin: 13.7751px 12.4882px; animation: 1s linear -0.04125s infinite normal forwards running blink-9610dd2b-bee2-4d76-bf3d-20b316379998;"><path d="M62.40-4.80L62.40-4.80L62.40-4.80Q62.64-3.44 63.04-2.16L63.04-2.16L63.04-2.16Q63.44-0.88 64 0L64 0L64 0Q64.08 0 64.12 0.12L64.12 0.12L64.12 0.12Q64.16 0.24 64 0.24L64 0.24L64 0.24Q63.84 0.24 63.64 0.12L63.64 0.12L63.64 0.12Q63.44 0 63.28 0L63.28 0L63.28 0Q62.24-0.64 61.64-1.56L61.64-1.56L61.64-1.56Q61.04-2.48 60.64-4.80L60.64-4.80L60.64-4.80Q60.48-5.68 60.48-7.04L60.48-7.04L60.48-7.04Q60.48-8.40 60.56-9.64L60.56-9.64L60.56-9.64Q60.64-10.88 60.80-11.76L60.80-11.76L60.80-11.76Q60.96-12.64 61.28-12.64L61.28-12.64L61.28-12.64Q61.36-12.64 61.48-12.24L61.48-12.24L61.48-12.24Q61.60-11.84 61.68-11.32L61.68-11.32L61.68-11.32Q61.76-10.80 61.80-10.32L61.80-10.32L61.80-10.32Q61.84-9.84 61.84-9.68L61.84-9.68L61.84-9.68Q62-8.32 62.08-7.12L62.08-7.12L62.08-7.12Q62.16-5.92 62.40-4.80" fill="#090333" stroke="none" stroke-width="none" transform="translate(-48.52887582778931,18.68824484616518)" style="fill: rgb(9, 3, 51);"></path></g><g class="path" style="opacity: 1; transform-origin: 48.115px 19.1088px; animation: 1s linear 0s infinite normal forwards running blink-9610dd2b-bee2-4d76-bf3d-20b316379998;"><path d="M97.44 0.24L97.44 0.24L97.44 0.24Q98.72 0.32 99.40 0.28L99.40 0.28L99.40 0.28Q100.08 0.24 101.20 0.08L101.20 0.08L101.20 0.08Q101.28 0.08 101.60 0.04L101.60 0.04L101.60 0.04Q101.92 0 102 0.08L102 0.08L102 0.08Q102.08 0.24 101.80 0.48L101.80 0.48L101.80 0.48Q101.52 0.72 101.36 0.80L101.36 0.80L101.36 0.80Q100.08 1.20 99 1.36L99 1.36L99 1.36Q97.92 1.52 95.84 1.28L95.84 1.28L95.84 1.28Q95.12 1.20 94.24 0.96L94.24 0.96L94.24 0.96Q93.36 0.72 92.64 0.44L92.64 0.44L92.64 0.44Q91.92 0.16 91.52-0.12L91.52-0.12L91.52-0.12Q91.12-0.40 91.36-0.56L91.36-0.56L91.36-0.56Q91.52-0.64 92.36-0.44L92.36-0.44L92.36-0.44Q93.20-0.24 93.52-0.16L93.52-0.16L93.52-0.16Q94.64 0.08 95.60 0.16L95.60 0.16L95.60 0.16Q96.56 0.24 97.44 0.24" fill="#090333" stroke="none" stroke-width="none" transform="translate(-48.52887582778931,18.68824484616518)" style="fill: rgb(9, 3, 51);"></path></g></g>
</g>
</g>
<style id="blink-9610dd2b-bee2-4d76-bf3d-20b316379998" data-anikit="">@keyframes blink-9610dd2b-bee2-4d76-bf3d-20b316379998 {
  0% { opacity: 1; }
  49.75% { opacity: 1; }
  50.25% { opacity: 0; }
  99.5% { opacity: 0; }
  100% { opacity: 1; }
}</style></svg>